<svg width="32" height="32" viewBox="0 0 32 32" fill="none" xmlns="http://www.w3.org/2000/svg">
<path d="M16.0287 0.119995C7.20969 0.119995 0.0583496 7.39193 0.0583496 16.363C0.0583496 23.5397 4.63435 29.6284 10.9799 31.7763C11.778 31.9266 12.071 31.4239 12.071 30.9949C12.071 30.6075 12.0562 29.328 12.0494 27.9707C7.60638 28.9533 6.66886 26.0542 6.66886 26.0542C5.94238 24.1767 4.89564 23.6775 4.89564 23.6775C3.44665 22.6693 5.00486 22.69 5.00486 22.69C6.60856 22.8043 7.45299 24.3639 7.45299 24.3639C8.87739 26.8472 11.1891 26.1292 12.1004 25.7142C12.2437 24.6646 12.6576 23.9475 13.1143 23.5422C9.56711 23.1314 5.83818 21.7386 5.83818 15.5147C5.83818 13.7413 6.46205 12.2923 7.48367 11.1547C7.31785 10.7453 6.77121 9.09351 7.63838 6.85612C7.63838 6.85612 8.97947 6.41956 12.0314 8.52112C13.3053 8.16122 14.6715 7.98073 16.0287 7.97455C17.386 7.98073 18.7532 8.16122 20.0295 8.52112C23.0777 6.41956 24.417 6.85612 24.417 6.85612C25.2863 9.09351 24.7393 10.7453 24.5735 11.1547C25.5975 12.2923 26.2172 13.7413 26.2172 15.5147C26.2172 21.7534 22.4811 23.1271 18.9249 23.5293C19.4977 24.0333 20.0081 25.0218 20.0081 26.5373C20.0081 28.7104 19.9896 30.4596 19.9896 30.9949C19.9896 31.4271 20.2771 31.9336 21.0866 31.7741C27.4287 29.6239 31.9988 23.5373 31.9988 16.363C31.9988 7.39193 24.8486 0.119995 16.0287 0.119995Z" fill="#4F6B82"/>
<path d="M6.10715 23.4415C6.07198 23.5225 5.94715 23.5464 5.83343 23.491C5.7176 23.438 5.65254 23.328 5.69009 23.247C5.72447 23.1639 5.84956 23.1411 5.96513 23.1962C6.08123 23.2495 6.14735 23.3606 6.10715 23.4415Z" fill="#4F6B82"/>
<path d="M6.75411 24.1754C6.67795 24.2472 6.52906 24.2138 6.42803 24.1003C6.32357 23.9871 6.304 23.8356 6.38122 23.7628C6.45977 23.6909 6.60416 23.7246 6.70889 23.8378C6.81335 23.9524 6.83372 24.1027 6.75411 24.1754Z" fill="#4F6B82"/>
<path d="M7.38374 25.1109C7.28589 25.18 7.12589 25.1152 7.02698 24.9708C6.92913 24.8263 6.92913 24.6531 7.0291 24.5837C7.12827 24.5143 7.28589 24.5767 7.38612 24.7201C7.48371 24.8667 7.48371 25.0402 7.38374 25.1109Z" fill="#4F6B82"/>
<path d="M8.24643 26.0146C8.15889 26.1128 7.97244 26.0864 7.83598 25.9525C7.69634 25.8215 7.65747 25.6356 7.74527 25.5374C7.83386 25.439 8.02137 25.4667 8.15889 25.5996C8.29747 25.7303 8.33978 25.9175 8.24643 26.0146Z" fill="#4F6B82"/>
<path d="M9.43635 26.5395C9.39774 26.6667 9.21817 26.7245 9.03727 26.6705C8.85665 26.6148 8.73843 26.4658 8.77493 26.3372C8.81248 26.2092 8.99284 26.1489 9.17506 26.2067C9.35542 26.2621 9.4739 26.4101 9.43635 26.5395Z" fill="#4F6B82"/>
<path d="M10.7434 26.6369C10.7479 26.7708 10.5945 26.8819 10.4046 26.884C10.2137 26.8886 10.0592 26.7802 10.0571 26.6484C10.0571 26.5131 10.2071 26.4031 10.398 26.3999C10.5879 26.3961 10.7434 26.5037 10.7434 26.6369Z" fill="#4F6B82"/>
<path d="M11.9597 26.4262C11.9825 26.5569 11.8505 26.6912 11.6619 26.7267C11.4765 26.7614 11.3049 26.6807 11.2814 26.551C11.2584 26.4171 11.3927 26.2828 11.5778 26.2481C11.7667 26.2148 11.9357 26.2933 11.9597 26.4262Z" fill="#4F6B82"/>
</svg>
