<svg width="32" height="32" viewBox="0 0 32 32" fill="none" xmlns="http://www.w3.org/2000/svg">
<path fill-rule="evenodd" clip-rule="evenodd" d="M16 0C7.16344 0 0 7.16344 0 16C0 24.8366 7.16344 32 16 32C24.8366 32 32 24.8366 32 16C32 7.16344 24.8366 0 16 0ZM7.68106 13.2519H11.307V24.1464H7.68106V13.2519ZM11.5459 9.8818C11.5223 8.8136 10.7585 8 9.51806 8C8.27764 8 7.4667 8.8136 7.4667 9.8818C7.4667 10.9279 8.25367 11.7649 9.47099 11.7649H9.49416C10.7585 11.7649 11.5459 10.9279 11.5459 9.8818ZM20.2087 12.9961C22.5948 12.9961 24.3836 14.5535 24.3836 17.8998L24.3834 24.1464H20.7576V18.3178C20.7576 16.8538 20.2329 15.8548 18.9203 15.8548C17.9186 15.8548 17.3219 16.5283 17.0598 17.1788C16.964 17.4119 16.9404 17.7367 16.9404 18.0623V24.1467H13.314C13.314 24.1467 13.3618 14.2745 13.314 13.2522H16.9404V14.7953C17.4217 14.0535 18.2836 12.9961 20.2087 12.9961Z" fill="#4F6B82"/>
</svg>
