<svg width="228" height="28" viewBox="0 0 228 28" fill="none" xmlns="http://www.w3.org/2000/svg">
<path fill-rule="evenodd" clip-rule="evenodd" d="M105.005 4.22422C104.181 4.2711 103.357 4.32164 102.533 4.36851C91.6138 4.80485 80.6914 5.3277 69.7579 5.97319C62.8906 6.37706 58.1086 6.68358 54.1751 6.96485C36.3876 7.91324 18.6433 9.28355 1.02202 11.2164C0.698192 11.2524 0.534105 11.3173 0.513551 11.3281C0.0476496 11.5481 0.00762363 11.9268 0.00077215 12.1107C-0.00824296 12.3703 0.056308 12.7128 0.481461 12.94C0.532306 12.9652 0.645542 13.0266 0.839908 13.041C0.919602 13.0482 1.88745 12.9797 3.71788 12.8391C3.62051 13.041 3.61619 13.2357 3.65297 13.4124C3.68975 13.5855 3.85095 14.0904 4.52961 14.1445C5.07917 14.1877 8.88644 13.6396 10.3649 13.4953C15.4974 12.9977 20.623 12.4244 25.7591 11.9628C33.7945 11.238 41.8356 10.5817 49.8778 9.94344C55.3604 9.50351 60.8434 9.07436 66.3289 8.65606C73.2179 8.22334 80.1098 7.82304 87.0038 7.46244C106.812 6.92514 126.621 6.80251 146.317 6.89988C169.788 7.01888 193.383 6.82775 216.703 9.6008L215.542 9.64411L215.127 9.65855C204.98 8.72819 192.773 9.44938 184.177 9.36283C147.161 8.99502 110.733 10.1958 73.8584 13.1456C59.3855 14.3067 44.9206 15.9259 30.5249 17.783C25.546 18.4285 12.6176 19.9465 10.8575 20.5127C10.2564 20.7038 10.0944 21.1185 10.0595 21.2628C10.0068 21.4791 10.0295 21.6883 10.1323 21.8938C10.199 22.0273 10.3123 22.1824 10.5337 22.3014C10.618 22.3482 10.771 22.4095 11.01 22.442C11.2286 22.4708 11.6173 22.4889 12.2008 22.4889C59.2315 22.2978 106.083 16.7481 153.035 14.3681C170.362 13.4882 187.689 12.6552 205.02 11.8438C208.413 11.6852 211.81 11.5806 215.207 11.458C215.921 11.5265 216.62 11.6022 217.309 11.6887L209.505 12.0999C193.953 12.9184 178.443 14.0796 162.919 15.3561C126.967 18.3095 91.1789 23.2245 55.196 25.6874C54.6998 25.7235 54.3244 26.1526 54.3583 26.6502C54.3922 27.1478 54.8231 27.5229 55.3193 27.4868C91.3102 25.0239 127.107 20.1053 163.067 17.1519C178.573 15.879 194.064 14.7178 209.599 13.8993C215.124 13.6108 222.859 13.2032 224.334 13.1203C224.51 13.1095 224.611 13.1023 224.629 13.0987C225.055 13.0519 225.206 12.7994 225.228 12.7705C225.448 12.5001 225.466 12.2224 225.397 11.9664C225.354 11.8077 225.242 11.476 224.784 11.3389C224.662 11.3029 224.539 11.2668 224.413 11.2343C225.769 11.2127 226.901 11.1839 227.215 11.1118C227.878 10.9567 227.983 10.4446 227.997 10.2571C228.012 10.0588 227.972 9.84605 227.813 9.6369C227.748 9.55035 227.64 9.43493 227.446 9.34118C227.348 9.2979 227.128 9.22579 226.742 9.16448C214.33 7.2064 201.825 6.22201 189.283 5.70995L197.061 5.77123C197.169 5.77123 197.22 5.76762 197.23 5.76762C197.688 5.72795 197.847 5.44667 197.883 5.39618C198.056 5.15458 198.089 4.90575 198.027 4.66054C198.024 4.64251 197.923 4.16288 197.44 4.01143L202.484 3.94655C203.509 3.93573 204.017 3.92136 204.107 3.91415C204.551 3.87088 204.709 3.61117 204.742 3.56789C204.955 3.30105 204.976 3.02338 204.897 2.75292C204.865 2.64114 204.753 2.23727 204.208 2.12909C204.179 2.12187 204.039 2.1039 203.793 2.1003C201.554 2.06063 185.392 2.09303 179.175 2.12909C169.19 2.18678 159.201 2.24813 149.216 2.45007C141.957 2.59432 134.705 2.82144 127.454 3.11714C107.045 2.62672 86.6569 1.79375 66.5117 0.26118C66.0155 0.221513 65.5821 0.596559 65.5442 1.09059C65.5067 1.58822 65.8789 2.02093 66.3747 2.06059C79.1733 3.03062 92.0696 3.72658 105.005 4.22422ZM181.739 11.1442C145.61 10.8521 110.02 12.0601 74.0022 14.945C59.5582 16.0989 45.1225 17.7181 30.7556 19.5716C28.905 19.8132 25.9373 20.1702 22.8689 20.5524C66.286 19.6725 109.572 14.7647 152.945 12.565C162.54 12.0782 172.14 11.6058 181.739 11.1442Z" fill="#F07C10"/>
</svg>
